<?xml version="1.0" encoding="utf-8"?>
<!-- Generator: Adobe Illustrator 23.0.5, SVG Export Plug-In . SVG Version: 6.00 Build 0)  -->
<svg version="1.1" id="Capa_1" xmlns="http://www.w3.org/2000/svg" xmlns:xlink="http://www.w3.org/1999/xlink" x="0px" y="0px"
	 viewBox="0 0 60 60" style="enable-background:new 0 0 60 60;" xml:space="preserve">
<style type="text/css">
	.st0{fill:#19A6B9;}
</style>
<g>
	<path class="st0" d="M59.7,16.4c-0.3-0.4-0.7-0.7-1.3-0.7l-42.4-2.8l-0.8-5.5c-0.1-0.7-0.6-1.2-1.2-1.3L2,3C1.1,2.8,0.3,3.3,0,4.2
		c-0.2,0.9,0.3,1.7,1.2,2l11.1,2.7l4.3,29.5c-0.6,0.6-1.3,1.2-2,2c-1.7,1.8-3.8,4.5-2.4,6.6c0.3,0.4,0.8,0.7,1.4,0.7
		c5.6-0.1,31.9,0,34.9,0h0c0.9,0,1.6-0.7,1.6-1.6c0-0.9-0.7-1.6-1.6-1.6h0c-2.7,0-24.8-0.1-32.9,0c0.3-0.5,0.9-1.3,1.9-2.3
		c1.1-1.2,2.3-2.2,2.6-2.5h30.4c0.7,0,1.3-0.4,1.5-1l8-20.8C60.1,17.3,60,16.8,59.7,16.4z"/>
	<path class="st0" d="M17.2,57.1c-2.6,0-4.7-2.1-4.7-4.7c0-2.6,2.1-4.7,4.7-4.7c2.6,0,4.7,2.1,4.7,4.7C21.9,55,19.8,57.1,17.2,57.1z
		 M17.2,50.9c-0.8,0-1.4,0.6-1.4,1.4c0,0.8,0.6,1.4,1.4,1.4c0.8,0,1.4-0.6,1.4-1.4C18.6,51.6,18,50.9,17.2,50.9z"/>
	<path class="st0" d="M44.8,57.1c-2.6,0-4.7-2.1-4.7-4.7c0-2.6,2.1-4.7,4.7-4.7s4.7,2.1,4.7,4.7C49.5,55,47.4,57.1,44.8,57.1z
		 M44.8,50.9c-0.8,0-1.4,0.6-1.4,1.4c0,0.8,0.6,1.4,1.4,1.4c0.8,0,1.4-0.6,1.4-1.4C46.2,51.6,45.6,50.9,44.8,50.9z"/>
</g>
</svg>
