<?xml version="1.0" encoding="utf-8"?>
<!-- Generator: Adobe Illustrator 23.0.5, SVG Export Plug-In . SVG Version: 6.00 Build 0)  -->
<svg version="1.1" id="Capa_1" xmlns="http://www.w3.org/2000/svg" xmlns:xlink="http://www.w3.org/1999/xlink" x="0px" y="0px"
	 viewBox="0 0 60 60" style="enable-background:new 0 0 60 60;" xml:space="preserve">
<style type="text/css">
	.st0{fill:#FFFFFF;stroke:#FFFFFF;stroke-width:3;stroke-miterlimit:10;}
	.st1{fill:#19A6B9;}
</style>
<g>
	<path class="st0" d="M58.6,21c0,4.6-1.6,8.5-4.7,11.8c-6.6,7-13.2,13.9-19.8,20.9c-2.4,2.5-5.9,2.5-8.3,0
		c-6.5-6.8-13-13.6-19.5-20.5C1,27.5-0.2,19,3.6,12.4c2.9-5.1,7.3-7.7,13-7.9c4.6-0.1,8.5,1.6,11.7,5c0.4,0.5,0.9,0.9,1.3,1.4
		c0.3,0.4,0.5,0.3,0.8,0c1.2-1.3,2.3-2.5,3.7-3.5C43.2,1,56.3,5.7,58.4,18.3C58.6,19.2,58.6,20.1,58.6,21z M54.7,21
		c0-0.5,0-0.9,0-1.4c-0.1-0.5-0.1-1.1-0.3-1.6c-1.2-4.6-3.9-7.7-8.3-9c-4.4-1.3-8.4-0.2-11.7,3.1c-1,1-2,2.1-2.9,3.1
		c-1,1.1-2.1,1.1-3.1,0c-1-1-1.9-2-2.9-3.1c-3-3.1-6.6-4.3-10.8-3.6c-4.9,0.9-9,5.5-9.4,10.7c-0.3,4.3,0.9,8,3.8,11
		c3.9,4.1,7.8,8.2,11.7,12.3c2.6,2.7,5.1,5.4,7.7,8.1c0.9,1,2,1,2.9,0.1c6.7-7,13.4-14.1,20-21.1C53.7,27.3,54.8,24.4,54.7,21z"/>
</g>
<path class="st1" d="M54.7,21c0-0.5,0-0.9,0-1.4c-0.1-0.5-0.1-1.1-0.3-1.6c-1.2-4.6-3.9-7.7-8.3-9c-4.4-1.3-8.4-0.2-11.7,3.1
	c-1,1-2,2.1-2.9,3.1c-1,1.1-2.1,1.1-3.1,0c-1-1-1.9-2-2.9-3.1c-3-3.1-6.6-4.3-10.8-3.6c-4.9,0.9-9,5.5-9.4,10.7
	c-0.3,4.3,0.9,8,3.8,11c3.9,4.1,7.8,8.2,11.7,12.3c2.6,2.7,5.1,5.4,7.7,8.1c0.9,1,2,1,2.9,0.1c6.7-7,13.4-14.1,20-21.1
	C53.7,27.3,54.8,24.4,54.7,21z"/>
</svg>
