<?xml version="1.0" encoding="utf-8"?>
<!-- Generator: Adobe Illustrator 23.0.5, SVG Export Plug-In . SVG Version: 6.00 Build 0)  -->
<svg version="1.1" id="Capa_1" xmlns="http://www.w3.org/2000/svg" xmlns:xlink="http://www.w3.org/1999/xlink" x="0px" y="0px"
	 viewBox="0 0 60 60" style="enable-background:new 0 0 60 60;" xml:space="preserve">
<style type="text/css">
	.st0{fill:#FFFFFF;}
</style>
<g>
	<path class="st0" d="M16.8,60c-0.4-0.5-0.4-1.1-0.4-1.7c-0.5-3.3-0.7-6.6-0.4-9.9c0.2-2,0.8-3.8,1.2-5.7c1.1-4.6,2.3-9.3,3.4-13.9
		c0.1-0.3,0-0.6-0.1-0.9c-1.2-3.3-1.4-6.6,0.2-9.9c1-2,2.5-3.4,4.7-3.8c3.1-0.6,5.7,1.4,5.8,4.5c0.1,2.1-0.5,4-1.1,5.9
		c-0.6,2.1-1.4,4.3-2,6.4c-0.9,3.3,1.2,6.3,4.6,6.7c3.6,0.4,6.5-1,8.8-3.6c2.2-2.6,3.4-5.6,3.9-8.9c0.4-2.7,0.5-5.4-0.2-8
		c-1.2-4.3-3.8-7.3-7.8-9.2C34,6.4,30.4,6.1,26.6,6.7c-4.1,0.6-7.6,2.4-10.3,5.5c-4.1,4.7-5.1,11.7-1.6,17.3
		c0.1,0.1,0.1,0.2,0.2,0.3c0.9,0.8,0.9,1.8,0.5,2.9c-0.3,0.9-0.5,1.8-0.7,2.7c-0.3,1.1-0.6,1.2-1.6,0.7c-1.8-0.9-3.2-2.3-4.3-3.9
		C6.1,28,5.1,23.5,5.9,18.6C7.5,9.6,13,4.1,21.5,1.3c3.9-1.2,7.9-1.6,11.9-1.2c5.2,0.5,10,2.3,14,5.8c4,3.5,6.4,7.9,6.8,13.3
		c0.5,5.8-0.8,11.2-4.1,16c-2.8,4.1-6.6,6.8-11.4,7.9c-3.1,0.7-6.1,0.7-9.1-0.6c-1.4-0.6-2.3-1.3-3.7-3c-0.4,1.4-0.7,2.7-1.1,4
		c-0.8,2.7-1.3,5.5-2.6,8.1c-1.4,3-3.1,5.7-5,8.4C17,60,16.9,60,16.8,60z"/>
</g>
</svg>
