<?xml version="1.0" encoding="utf-8"?>
<!-- Generator: Adobe Illustrator 23.0.5, SVG Export Plug-In . SVG Version: 6.00 Build 0)  -->
<svg version="1.1" id="Capa_1" xmlns="http://www.w3.org/2000/svg" xmlns:xlink="http://www.w3.org/1999/xlink" x="0px" y="0px"
	 viewBox="0 0 60 60" style="enable-background:new 0 0 60 60;" xml:space="preserve">
<style type="text/css">
	.st0{fill:#FFFFFF;}
</style>
<g>
	<path class="st0" d="M0,49.2c6.6,0.5,12.6-1.2,18-5.3c-1.1-0.1-2-0.2-2.8-0.4c-4.1-1.1-6.9-3.7-8.5-7.7c-0.2-0.5-0.2-0.5,0.4-0.5
		c1.9,0.2,3.4,0.1,4.8-0.3c-6.1-1.8-9.4-5.9-9.8-12.3c1.8,0.9,3.6,1.5,5.5,1.5C7.5,24,7.3,24,7.2,23.8C2.4,20.2,0.9,13.7,3.6,8.4
		c0.3-0.6,0.3-0.6,0.8-0.1c5.4,6.3,12.1,10.2,20.3,11.9c1.4,0.3,2.8,0.4,4.3,0.6c0.5,0,0.6-0.1,0.5-0.5c-0.8-4.8,0.7-8.9,4.4-11.9
		c4.8-4,11.9-3.6,16.4,0.8c0.3,0.3,0.6,0.4,1.1,0.3c2.5-0.6,4.9-1.5,7.1-2.8c-0.9,2.8-2.6,5-5.1,6.7c0.5-0.1,1.1-0.2,1.6-0.3
		c0.6-0.1,1.2-0.3,1.7-0.4c0.6-0.2,1.1-0.3,1.7-0.5c0.5-0.2,1.1-0.4,1.7-0.6c-0.5,0.8-1,1.5-1.5,2.1c-1.2,1.5-2.6,2.8-4.1,3.9
		c-0.3,0.2-0.4,0.5-0.4,0.8c0.1,11.2-4,20.6-12.2,28c-4.9,4.4-10.8,7-17.3,7.9c-7.2,1.1-14.1,0.1-20.7-3c-1.1-0.5-2.3-1.1-3.3-1.8
		C0.2,49.3,0.1,49.2,0,49.2z"/>
</g>
</svg>
