<?xml version="1.0" encoding="utf-8"?>
<!-- Generator: Adobe Illustrator 23.0.5, SVG Export Plug-In . SVG Version: 6.00 Build 0)  -->
<svg version="1.1" id="Capa_1" xmlns="http://www.w3.org/2000/svg" xmlns:xlink="http://www.w3.org/1999/xlink" x="0px" y="0px"
	 viewBox="0 0 60 60" style="enable-background:new 0 0 60 60;" xml:space="preserve">
<style type="text/css">
	.st0{fill:#FFFFFF;}
</style>
<g>
	<path class="st0" d="M30,0c7.4,0,14.8,0,22.2,0c3.4,0,5.7,1.7,7.2,4.6c0.5,1,0.6,2,0.6,3.1c0,14.9,0,29.7,0,44.6
		c0,4.2-3.3,7.5-7.5,7.7c-0.1,0-0.3,0-0.4,0c-14.7,0-29.5,0-44.2,0c-3.4,0-5.7-1.6-7.2-4.6c-0.5-1-0.7-2.1-0.7-3.2
		c0-4.9,0-9.9,0-14.8c0-9.9,0-19.9,0-29.8c0-3.4,2.6-6.7,6-7.4C6.6,0.1,7.3,0,7.9,0C15.3,0,22.6,0,30,0z M29.9,53.1
		c6.9,0,13.8,0,20.7,0c1.6,0,2.5-1,2.5-2.5c0-8.3,0-16.5,0-24.8c0-0.3-0.1-0.4-0.4-0.4c-1.5,0-3,0-4.5,0c-0.4,0-0.3,0.1-0.3,0.4
		c1.7,6.6,0.2,12.4-4.5,17.2s-10.6,6.4-17.2,5.3c-3.6-0.6-6.7-2.3-9.3-4.8c-5.1-4.9-6.7-10.9-4.9-17.7c0.1-0.3,0-0.4-0.3-0.4
		c-1.6,0-3.1,0-4.7,0c-0.4,0-0.4,0.1-0.4,0.4c0,4.7,0,9.3,0,14c0,3.6,0,7.2,0,10.9c0,0.8,0.3,1.5,1,2c0.5,0.3,1,0.4,1.6,0.4
		C16.2,53.1,23.1,53.1,29.9,53.1z M42.1,30.5c0-2.2-0.3-3.9-1-5.3c-2-4-5.2-6.4-9.6-6.9c-3.8-0.4-7.2,0.7-10,3.3
		c-4.1,3.9-4.3,9.6-2.3,13.3C22.8,41.7,30.7,43,36,40C39.9,37.8,42,34.5,42.1,30.5z M47.1,18.5c1.1,0,2.2,0,3.3,0
		c1.6,0,2.7-1.1,2.8-2.7c0-2.1,0-4.3,0-6.4c0-1.6-1.2-2.7-2.8-2.7c-2.2,0-4.4,0-6.7,0c-1.6,0-2.8,1.2-2.8,2.8c0,2.1,0,4.2,0,6.3
		c0,1.7,1.1,2.8,2.8,2.8C44.9,18.5,46,18.5,47.1,18.5z"/>
</g>
</svg>
