<?xml version="1.0" encoding="utf-8"?>
<!-- Generator: Adobe Illustrator 23.0.5, SVG Export Plug-In . SVG Version: 6.00 Build 0)  -->
<svg version="1.1" id="Capa_1" xmlns="http://www.w3.org/2000/svg" xmlns:xlink="http://www.w3.org/1999/xlink" x="0px" y="0px"
	 viewBox="0 0 60 60" style="enable-background:new 0 0 60 60;" xml:space="preserve">
<style type="text/css">
	.st0{fill:#FFFFFF;}
</style>
<g>
	<path class="st0" d="M22.8,45.9c0-4.6,0-9.2,0-13.8c0-0.2-0.1-0.3-0.3-0.3c-2.3,0-4.6,0-6.9,0c-0.2,0-0.3-0.1-0.3-0.3
		c0-3.2,0-6.5,0-9.7c0-0.2,0.1-0.3,0.3-0.3c2.3,0,4.6,0,6.9,0c0.2,0,0.3,0,0.3-0.3c0-2.9,0-5.8,0-8.7c0-2.2,0.5-4.3,1.7-6.3
		c1.6-2.8,4-4.5,6.9-5.5C33.6,0.2,35.9,0,38.1,0c2,0,4.1,0.1,6.1,0.4c0.3,0,0.3,0,0.3,0.4c-0.1,3-0.2,6-0.2,9c0,0.2-0.1,0.2-0.2,0.2
		c-2.1,0-4.1,0-6.2,0c-0.5,0-1,0-1.6,0.1c-1.5,0.3-2.4,1.1-2.6,2.7c-0.1,0.5-0.1,1-0.1,1.5c0,2.4,0,4.8,0,7.2c0,0.2,0.1,0.3,0.3,0.3
		c3.5,0,6.9,0,10.4,0c0.4,0,0.3,0,0.3,0.3c-0.1,2.5-0.2,4.9-0.4,7.4c0,0.8-0.1,1.5-0.1,2.3c0,0.2-0.1,0.3-0.3,0.3
		c-3.3,0-6.6,0-9.9,0c-0.3,0-0.3,0-0.3,0.3c0,9.1,0,18.3,0,27.4c0,0.4,0,0.3-0.3,0.3c-3.4,0-6.8,0-10.2,0c-0.2,0-0.3-0.1-0.3-0.3
		C22.8,55.1,22.8,50.5,22.8,45.9z"/>
</g>
</svg>
