<?xml version="1.0" encoding="utf-8"?>
<!-- Generator: Adobe Illustrator 23.0.5, SVG Export Plug-In . SVG Version: 6.00 Build 0)  -->
<svg version="1.1" id="Capa_1" xmlns="http://www.w3.org/2000/svg" xmlns:xlink="http://www.w3.org/1999/xlink" x="0px" y="0px"
	 viewBox="0 0 60 60" style="enable-background:new 0 0 60 60;" xml:space="preserve">
<style type="text/css">
	.st0{fill:#9C9C9C;stroke:#9C9C9C;stroke-miterlimit:10;}
</style>
<g>
	<path class="st0" d="M26.4,15c0.7,0.1,1.4,0.2,2.1,0.4c1.9,0.5,3.5,1.5,4.9,2.9c1.5,1.5,2.4,3.3,2.8,5.4c0.4,2.2,0.2,4.4-0.7,6.4
		c-0.3,0.8-0.8,1.5-1.3,2.2c-0.2,0.2-0.1,0.3,0,0.5c3.4,3.4,6.8,6.8,10.2,10.2c0.2,0.2,0.4,0.5,0.6,0.8c0,0.2,0,0.3,0,0.5
		c0,0.1-0.1,0.2-0.1,0.2c-0.3,0.6-1.1,0.8-1.6,0.4c-0.1-0.1-0.2-0.2-0.3-0.3c-3.4-3.4-6.8-6.8-10.2-10.2c-0.2-0.2-0.3-0.3-0.6-0.1
		c-2.2,1.7-4.8,2.4-7.6,2.1c-3.5-0.4-6.2-2.1-8.1-5.1c-1.2-2-1.7-4.2-1.5-6.6c0.3-2.7,1.4-4.9,3.4-6.8c1.5-1.4,3.2-2.3,5.2-2.7
		c0.5-0.1,1-0.1,1.5-0.2C25.5,15,26,15,26.4,15z M25.7,17.2c-4.7,0-8.6,3.8-8.6,8.5c0,4.8,3.8,8.6,8.6,8.6c4.7,0,8.6-3.9,8.6-8.6
		C34.3,21,30.5,17.2,25.7,17.2z"/>
</g>
</svg>
