<?xml version="1.0" encoding="utf-8"?>
<!-- Generator: Adobe Illustrator 23.0.5, SVG Export Plug-In . SVG Version: 6.00 Build 0)  -->
<svg version="1.1" id="Capa_1" xmlns="http://www.w3.org/2000/svg" xmlns:xlink="http://www.w3.org/1999/xlink" x="0px" y="0px"
	 viewBox="0 0 60 60" style="enable-background:new 0 0 60 60;" xml:space="preserve">
<style type="text/css">
	.st0{fill:#FFFFFF;}
</style>
<g>
	<circle class="st0" cx="29.3" cy="30.8" r="7.1"/>
	<path class="st0" d="M29,48.6c-4.4,0.3-7.9-1.1-11.3-3C11,41.8,5.4,36.6,0.2,31c-0.3-0.4-0.3-0.6,0-0.9
		c4.9-5.6,10.1-10.8,16.5-14.7c4.1-2.5,8.6-3.6,13.3-4c5.5-0.4,10.2,1.6,14.7,4.5c5.7,3.6,10.5,8.2,15,13.1c0.3,0.4,0.4,0.6,0.1,1
		c-4.2,4.8-8.6,9.2-13.8,13C40.7,46.7,35,48.7,29,48.6z M29.3,18.7c-6.7,0-12,5.4-12,12c0,6.7,5.4,12,12.1,12c6.7,0,12-5.4,12-12.1
		C41.3,24,35.9,18.7,29.3,18.7z"/>
</g>
</svg>
